<?xml version="1.0" encoding="UTF-8" standalone="no"?>
<!-- Created with Inkscape (http://www.inkscape.org/) -->

<svg
   xmlns:dc="http://purl.org/dc/elements/1.1/"
   xmlns:cc="http://creativecommons.org/ns#"
   xmlns:rdf="http://www.w3.org/1999/02/22-rdf-syntax-ns#"
   xmlns:svg="http://www.w3.org/2000/svg"
   xmlns="http://www.w3.org/2000/svg"
   xmlns:xlink="http://www.w3.org/1999/xlink"
   xmlns:sodipodi="http://sodipodi.sourceforge.net/DTD/sodipodi-0.dtd"
   xmlns:inkscape="http://www.inkscape.org/namespaces/inkscape"
   width="1400"
   height="400"
   viewBox="0 0 1400 400.00001"
   id="svg3345"
   version="1.1"
   inkscape:version="0.91 r13725"
   sodipodi:docname="fresh.svg">
  <defs
     id="defs3347" />
  <sodipodi:namedview
     id="base"
     pagecolor="#ffffff"
     bordercolor="#666666"
     borderopacity="1.0"
     inkscape:pageopacity="0.0"
     inkscape:pageshadow="2"
     inkscape:zoom="0.49497475"
     inkscape:cx="468.44807"
     inkscape:cy="-86.475183"
     inkscape:document-units="px"
     inkscape:current-layer="layer1"
     showgrid="false"
     showguides="true"
     inkscape:guide-bbox="true"
     fit-margin-top="0"
     fit-margin-left="0"
     fit-margin-right="0"
     fit-margin-bottom="0"
     units="px"
     inkscape:window-width="1855"
     inkscape:window-height="1056"
     inkscape:window-x="65"
     inkscape:window-y="24"
     inkscape:window-maximized="1" />
  <metadata
     id="metadata3350">
    <rdf:RDF>
      <cc:Work
         rdf:about="">
        <dc:format>image/svg+xml</dc:format>
        <dc:type
           rdf:resource="http://purl.org/dc/dcmitype/StillImage" />
        <dc:title></dc:title>
      </cc:Work>
    </rdf:RDF>
  </metadata>
  <g
     inkscape:label="Layer 1"
     inkscape:groupmode="layer"
     id="layer1"
     transform="translate(-10.571442,85.109386)">
    <path
       style="fill:#5294e2;fill-opacity:1;stroke:#5294e2;stroke-width:1.32261825;stroke-opacity:1"
       id="path4379"
       d="m 245.30871,264.63841 c 42.4742,-4.32406 85.23325,-4.61043 127.81212,-7.57791 11.09389,-0.77317 22.1589,-1.89442 33.23834,-2.8416 110.88893,-5.84492 221.28864,-17.52783 331.65536,-29.07864 77.28646,-7.52503 154.81772,-15.56278 232.59114,-15.90242 12.75235,-0.0557 25.50179,0.39042 38.25273,0.58562 42.9706,0.63022 85.9717,5.15829 127.743,15.12951 15.1528,3.6171 20.5851,5.72021 34.7091,10.40682 9.1941,2.9661 17.8217,7.21234 26.6106,11.09546 2.8855,1.27487 5.7452,2.49359 8.4868,4.0393 6.7471,5.64679 7.4531,4.88671 7.2968,18.48304 -0.029,2.48515 -2.386,4.40225 -3.579,6.60339 -17.8473,0.65582 0,0 -17.8473,0.65582 -12.9679,-1.40084 -25.6619,-4.46903 -38.532,-6.48087 -43.3221,-6.70504 -87.2302,-10.60315 -131.1418,-9.11188 -11.9755,0.32597 -23.96004,0.42199 -35.92648,0.97789 -75.6424,3.51398 -150.7861,13.69702 -225.75064,23.54481 -112.18829,14.85538 -224.96697,28.74082 -338.45005,27.24595 -21.38188,-0.55617 -42.78085,-0.67241 -64.1457,-1.66849 -23.81876,-1.11052 -50.53841,-3.93049 -74.33481,-7.34788 -10.71162,-1.53828 -28.7164,-4.70332 -40.13332,-7.4774 -2.92128,-0.7098 -5.75353,-1.72663 -8.6303,-2.58995 -2.09717,-0.68917 7.97823,-29.37976 10.07541,-28.69057 z"
       inkscape:connector-curvature="0"
       sodipodi:nodetypes="csccscscsccccccsccssscc" />
    <g
       id="g4381"
       transform="matrix(1.3634642,0,0,1.3007437,213.29195,-268.12086)">
      <circle
         id="circle8"
         r="128"
         cx="138.57144"
         cy="270.93359"
         style="fill:#4dadd4" />
      <path
         d="m 182.57143,292.93364 c -17.556,0 -32.315,12.472 -37,29 -0.98896,3.4889 -1.6694,4.6841 -3,7 -1.7157,2.9862 -5.1986,7.2988 -10,10 -3.9063,2.1976 -7.2726,4.0674 -12.303,3.3096 -1.3094,-0.19726 -3.6295,-0.56196 -5.951,-1.8976 -3.7,-2.13 -4.92,-4 -7.75,-9.41 0.40401,5.7738 -0.34048,7.8803 2.5,18 5.6541,20.144 27.381,36 53,36 18.991,0 36.592,-7.9151 46.496,-19.998 3.6222,-4.4191 6.3498,-7.9058 9,-14 2.4112,-5.5448 3.0022,-12.653 3.004,-19.002 0.006,-21.556 -17.013,-39 -38,-39 z"
         id="budgie"
         style="fill:#ffffff"
         inkscape:connector-curvature="0" />
      <use
         id="use11"
         x="0"
         y="0"
         width="100%"
         height="100%"
         transform="matrix(-0.5,0.86603,-0.86603,-0.5,442.49195,286.39428)"
         xlink:href="#budgie" />
      <use
         id="use13"
         x="0"
         y="0"
         width="100%"
         height="100%"
         transform="matrix(-0.5,-0.86603,0.86603,-0.5,-26.778678,526.40565)"
         xlink:href="#budgie" />
    </g>
    <path
       style="fill:#4dadd4;fill-opacity:1;stroke:#4dadd4;stroke-width:1.40526199;stroke-opacity:1"
       id="path4259"
       d="m 633.18165,210.77948 c -2.05287,-0.17742 -4.53902,0.74392 -6.15859,-0.53225 -1.06747,-0.84114 2.60107,-0.79046 3.87229,-1.26926 6.53053,-2.45979 8.82291,-4.18438 12.34725,-10.14681 2.58758,-8.03446 -0.71116,-16.03308 -3.25449,-23.66423 -2.82438,-8.47438 -5.40224,-15.4455 -8.45744,-23.91945 -10.44257,-31.35215 -18.27451,-63.853574 -21.95994,-96.747863 -0.89967,-8.029973 -1.25005,-16.112209 -1.87507,-24.168286 0.01,-8.009993 -0.37732,-16.030353 0.0298,-24.0299258 1.14282,-22.4527872 5.45976,-52.0639052 20.07536,-70.2474832 2.72396,-3.388918 6.31285,-5.977441 9.46926,-8.966156 4.23478,-1.829781 8.10821,-5.108084 12.70433,-5.489362 7.40073,-0.613924 14.98497,0.560322 22.1265,2.599993 3.94235,1.125953 7.07188,4.191376 10.33881,6.672312 8.89668,6.756294 15.35912,15.388419 21.77971,24.370392 6.57355,12.029304 3.67362,5.834174 8.70056,18.585026 0.8144,2.39692 -33.02091,13.935739 -33.83535,11.538819 l 0,0 c -3.43799,-7.828968 -1.39802,-3.935933 -6.2224,-11.624641 -4.41891,-5.825069 -4.85314,-6.728423 -9.87668,-12.034468 -1.53249,-1.618684 -3.11683,-3.191844 -4.77573,-4.68022 -0.94729,-0.849905 -4.09357,-1.62511 -3.02954,-2.32275 9.96646,-6.534572 8.86307,2.999931 8.9907,-4.42751 -0.76649,0.493021 -1.79933,0.716371 -2.29943,1.479062 -3.32428,5.069662 -4.60862,13.150142 -5.4516,18.559232 -2.95412,18.955556 -3.36976,38.2541173 -2.84603,57.390204 0.42066,7.330926 0.67803,14.673091 1.262,21.992765 2.45997,30.834049 7.37797,61.52642 15.08188,91.482 5.17929,19.10625 13.1004,43.1076 8.46298,62.9274 -0.85164,3.6399 -2.53878,7.03121 -3.80818,10.54683 -4.8657,7.70325 -5.67561,10.31707 -12.74921,16.24192 -10.54274,8.83055 -23.2248,10.61648 -36.53622,10.68807 -2.17412,-0.55925 5.72029,-31.3626 7.89442,-30.80336 z"
       inkscape:connector-curvature="0" />
    <path
       style="fill:#4dadd4;fill-opacity:1;stroke:#4dadd4;stroke-width:1.40526199;stroke-opacity:1"
       id="path4261"
       d="m 625.12344,102.99736 c 7.60033,-1.11611 15.33059,-0.49999 22.94033,-1.53023 0.31037,-0.0421 0.32473,-0.64534 0.63404,-0.69463 3.31754,-0.52871 6.69199,-0.60725 10.02777,-1.004486 3.12885,-0.3726 6.24168,-0.86976 9.36253,-1.30464 6.53479,-1.223663 12.97844,-2.964341 18.8853,-6.082262 1.14081,-0.602182 2.21387,-1.326134 3.29808,-2.025453 0.58986,-0.380459 1.0389,-1.051684 1.72183,-1.212453 0.25601,-0.06036 0.064,0.523054 0.0957,0.784585 0.80438,-2.120722 30.74067,9.276063 29.93628,11.396769 l 0,0 c -0.75653,1.9734 -1.27629,4.05512 -2.26959,5.92019 -5.33147,10.01065 -16.13157,17.53996 -26.25792,21.91382 -3.46562,1.49691 -7.1468,2.43247 -10.7202,3.6487 -3.7578,0.83872 -7.47878,1.86466 -11.27338,2.51617 -18.95925,3.25524 -38.99032,3.10353 -57.52584,-2.27888 -2.12075,-0.7895 9.02424,-30.83672 11.14498,-30.0472 z"
       inkscape:connector-curvature="0" />
    <path
       style="fill:#4dadd4;fill-opacity:1;stroke:#4dadd4;stroke-width:1.44777954;stroke-opacity:1"
       id="path4273"
       d="m 730.40269,182.45067 c 3.58234,-5.53076 8.46551,-10.70547 9.91462,-16.97242 1.07325,-4.64155 0.58979,-7.05684 0.36873,-11.89133 -1.60563,-13.51259 -4.99722,-26.85931 -5.58737,-40.45311 -0.47795,-11.00998 0.1343,-12.85916 1.31216,-23.768126 2.91873,-15.880112 10.5407,-30.360408 24.19851,-42.12544 7.7671,-6.690713 11.17429,-8.047454 20.29525,-13.169509 2.17369,-1.607278 30.21231,23.313384 28.03865,24.920673 l 0,0 c -17.56747,8.593811 -26.07759,15.659732 -29.18517,32.792859 -0.8538,9.227003 -1.21617,9.884553 -0.82897,19.313633 0.58898,14.34222 3.57701,28.56812 3.35458,42.94193 -0.21085,3.43065 -0.15807,6.87863 -0.63256,10.29193 -2.00967,14.45668 -8.94027,26.55438 -22.20263,36.38373 -1.59312,1.665 -30.63894,-16.5998 -29.0458,-18.26482 z"
       inkscape:connector-curvature="0" />
    <path
       style="fill:#4dadd4;fill-opacity:1;stroke:#4dadd4;stroke-width:1.40526199;stroke-opacity:1"
       id="path4275"
       d="m 822.08841,118.17452 c 17.06624,-6.67588 35.01074,-10.59607 52.14313,-17.10289 -0.61844,-2.791204 9.5745,-1.902216 9.24171,-5.754337 -0.024,-0.277056 -0.369,-0.419494 -0.51282,-0.657367 -0.37861,-0.626154 -0.73325,-1.26819 -1.0503,-1.927802 -0.62616,-1.302733 -1.185,-2.636892 -1.7775,-3.955334 -0.75208,-1.413582 -1.38919,-2.894882 -2.25628,-4.240727 -1.2609,-1.957119 -2.57058,-3.438557 -4.64951,-4.468413 -0.72796,-0.36061 -1.51678,-0.700893 -2.32867,-0.717199 -0.68533,-0.01408 -2.57545,0.333887 -1.95754,0.631159 2.05107,0.986764 4.42145,1.078526 6.63217,1.617794 -13.25031,2.799042 -23.51394,13.870781 -32.51418,23.294816 -6.2157,7.53724 -12.82511,16.12202 -13.73454,26.28194 -0.47256,5.27947 0.63051,6.9955 2.19882,12.00564 3.25153,6.33852 8.08246,12.08462 14.7176,15.13783 7.99799,3.68035 18.06681,2.94009 26.5174,2.65238 0.33968,-0.35737 0.5401,-0.95679 1.01903,-1.07214 3.57964,-0.86229 7.30427,-0.99775 10.89811,-1.79855 8.63,-1.92301 11.45058,-3.35525 19.46891,-6.48187 2.19643,-1.55891 24.20195,29.56037 22.00552,31.11927 l 0,0 c -4.00412,2.0887 -7.86686,4.47551 -12.01236,6.26613 -17.47932,7.55004 -34.17319,9.63553 -53.29613,9.00308 -12.32212,-1.77859 -17.99391,-1.6939 -29.47013,-6.92298 -13.32645,-6.07212 -24.12081,-16.08947 -31.00493,-29.04828 -2.08117,-3.91761 -3.29141,-8.24055 -4.9371,-12.36082 -1.86849,-11.21251 -3.08126,-13.56848 -1.80183,-24.85475 1.79858,-15.86579 9.55373,-30.028738 19.58856,-42.124186 2.63878,-2.793236 5.16049,-5.70238 7.91639,-8.379753 12.81345,-12.448401 28.16565,-22.492185 45.95692,-25.640063 5.94983,0.533357 11.99348,0.418436 17.8495,1.600044 2.89969,0.585088 5.53284,2.159677 8.09781,3.635501 9.71431,5.589359 16.10299,14.965169 20.1366,25.185608 1.94621,6.42187 3.71626,10.702561 3.69158,17.669993 -0.0401,11.287386 -4.68161,21.220316 -13.01686,28.778106 -2.57167,2.33181 -5.68779,3.97873 -8.53169,5.9681 -3.3716,1.71474 -6.65575,3.61426 -10.1148,5.14419 -15.72494,6.95515 -32.91884,9.88278 -49.94453,11.28554 -2.10116,0.93285 -15.26921,-28.83683 -13.16806,-29.76966 z"
       inkscape:connector-curvature="0" />
    <path
       style="fill:#4dadd4;fill-opacity:1;stroke:#4dadd4;stroke-width:1.19888592;stroke-opacity:1"
       id="path4287"
       d="m 988.32096,58.136731 c -9.89128,4.993905 -20.42289,8.936495 -30.16497,14.158556 -0.74065,0.383183 -1.48128,0.766402 -2.22196,1.149621 -0.0824,-0.04463 -0.27381,-0.0542 -0.24701,-0.133779 0.32225,-0.956194 0.81352,-1.863976 1.23301,-2.791773 0.2342,-0.517909 0.0978,-1.40484 0.7279,-1.545088 0.86344,-0.192203 1.70453,0.487037 2.50917,0.824669 1.6809,0.705319 3.28875,1.532058 4.9331,2.298101 17.01957,7.969967 35.0259,14.609677 50.8062,24.396792 3.0965,1.920504 5.9716,4.08909 8.9575,6.13364 2.345,2.14678 4.9896,4.08182 7.0348,6.44038 7.1238,8.21474 9.3,17.45684 6.2959,27.35026 -2.1983,7.24009 -6.562,11.98827 -11.1656,18.18612 -15.8386,17.77084 -37.00541,31.59997 -60.63806,41.14368 -4.6598,1.88181 -9.53751,3.34921 -14.30626,5.02382 -9.75815,2.39805 -15.92336,4.47136 -26.0112,4.94903 -6.29488,0.29804 -12.6149,-0.0585 -18.92231,-0.0878 -2.2825,-0.4942 5.66404,-27.97066 7.94656,-27.47645 l 0,0 c -1.04557,0.0531 -4.14635,0.39145 -3.13664,0.15901 2.73413,-0.62939 5.56638,-0.90606 8.3496,-1.35907 3.47354,-0.88675 6.94707,-1.7735 10.42062,-2.66026 10.12866,-3.588 14.3682,-4.84255 24.18542,-9.37166 15.1458,-6.98743 29.42551,-15.58144 41.93828,-25.65323 2.02086,-1.6859 4.06669,-3.35033 6.06259,-5.05772 1.1713,-1.00197 2.188,-2.13884 3.438,-3.06932 1.2073,-0.89884 2.5632,-0.78831 2.2561,-1.27716 -1.4303,-2.27678 -5.6604,-4.29057 -7.5868,-5.47264 -20.2613,-10.59142 -41.91714,-19.57835 -59.87226,-33.073314 -4.88441,-4.338057 -8.58186,-6.854559 -11.57002,-12.392748 -5.21658,-9.668324 -2.53523,-17.69539 5.24353,-25.235777 4.32175,-3.23664 6.37974,-5.005392 11.36702,-7.725559 7.9651,-4.344328 16.88452,-7.161687 26.0239,-9.137867 1.75794,-0.96017 17.87185,20.347377 16.11389,21.307544 z"
       inkscape:connector-curvature="0" />
    <path
       style="fill:#4dadd4;fill-opacity:1;stroke:#4dadd4;stroke-width:1.26182103;stroke-opacity:1"
       id="path4317"
       d="m 1140.1825,-54.764466 c -0.4775,1.86165 -0.8719,3.74596 -1.4323,5.584925 -2.9038,9.528598 -6.7567,18.782921 -10.0264,28.18588 -4.2406,12.19442 -6.5008,19.8983092 -10.4324,32.558811 -11.664,41.690422 -24.2215,83.483084 -29.9672,126.48552 -1.0248,7.66938 -1.4645,15.40389 -2.1967,23.10583 1.0182,23.28949 -0.7715,12.66515 4.3227,32.02765 0.7257,2.65869 -37.3672,12.78934 -38.093,10.13065 l 0,0 c -10.3011,-27.73752 -6.492,-13.04022 -10.8081,-44.24374 0.2197,-8.94539 -0.1024,-17.91975 0.659,-26.83614 3.9326,-46.053779 19.4875,-90.260281 37.2521,-132.6576444 9.7576,-21.5109576 19.7353,-43.1706946 32.9838,-62.8521566 0.6097,-1.936001 28.3482,6.574427 27.7385,8.510415 z"
       inkscape:connector-curvature="0" />
    <path
       style="fill:#4dadd4;fill-opacity:1;stroke:#4dadd4;stroke-width:1.39301848;stroke-opacity:1"
       id="path4323"
       d="m 1068.8401,64.711797 c 11.9066,-7.82049 26.9334,-7.624338 38.8611,0.349089 9.0913,6.077326 11.2877,10.660167 18.2597,19.981179 12.8009,20.560985 17.8002,45.872385 26.9299,68.659125 1.0684,2.66658 2.4041,5.1652 3.6061,7.74779 0.91,0.79815 1.6214,2.16147 2.7301,2.39445 0.6057,0.12722 1.8641,-1.17592 1.3292,-1.54137 -2.1197,-1.44824 -5.0865,-0.60953 -7.0419,-2.36174 -0.7667,-0.68696 1.7184,-1.03391 2.4842,-1.72226 3.6884,-3.31514 4.7322,-5.17288 7.9337,-9.43824 1.3354,-2.1026 2.6709,-4.20517 4.0063,-6.3078 1.1624,-2.40795 29.4112,17.40804 28.2488,19.81603 l 0,0 c -1.7945,3.10102 -3.5892,6.20202 -5.3838,9.30305 -2.2936,3.10597 -4.3779,6.45633 -6.8808,9.31791 -4.1904,4.79108 -13.237,13.44153 -19.1993,14.60096 -12.2099,2.37433 -20.3366,1.56901 -29.9151,-6.42951 -3.0497,-2.54667 -5.3947,-6.1412 -8.092,-9.21181 -2.0588,-3.62731 -4.313,-7.10435 -6.1767,-10.88189 -9.5682,-19.39376 -13.6774,-41.79207 -22.8673,-61.3998 -2.9105,-4.92988 -3.3659,-6.90924 -7.4087,-9.956963 -1.0383,-0.78268 -3.7592,-0.330077 -3.3805,-1.733831 0.4374,-1.620499 3.4536,0.395945 4.143,-1.091731 1.0088,-2.177039 -6.7054,-0.138546 -6.1181,-1.253153 -1.6917,1.36966 -17.7595,-27.469871 -16.0679,-28.839485 z"
       inkscape:connector-curvature="0" />
  </g>
</svg>
